# This file uses centimeters as units for non-parametric coordinates.

mtllib square_big.mtl
g default
v 0.856825 0.579656 0.000000
v 5.856825 0.579656 0.000000
v 0.856825 5.579656 0.000000
v 5.856825 5.579656 0.000000
vt 0.000000 0.000000
vt 1.000000 0.000000
vt 0.000000 1.000000
vt 1.000000 1.000000
vn 0.000000 0.000000 1.000000
vn 0.000000 0.000000 1.000000
vn 0.000000 0.000000 1.000000
vn 0.000000 0.000000 1.000000
s 1
g pPlane1
usemtl initialShadingGroup
f 1/1/1 2/2/2 3/3/3
f 3/3/3 2/2/2 4/4/4
